<?xml version="1.0" encoding="utf-8"?>
<!-- Generator: Adobe Illustrator 22.1.0, SVG Export Plug-In . SVG Version: 6.00 Build 0)  -->
<svg version="1.1" id="Layer_0_xA0_Image_1_" xmlns="http://www.w3.org/2000/svg" xmlns:xlink="http://www.w3.org/1999/xlink"
	 x="0px" y="0px" width="274.8px" height="274.8px" viewBox="0 0 274.8 274.8" style="enable-background:new 0 0 274.8 274.8;"
	 xml:space="preserve">
<style type="text/css">
	.st0{display:none;fill:#333333;}
	.st1{fill:#0073AB;}
	.st2{fill:#23282D;}
</style>
<path class="st0" d="M257.8,274.8H17c-9.4,0-17-7.6-17-17V17C0,7.7,7.7,0,17,0h240.8c9.4,0,17,7.7,17,17v240.8
	C274.8,267.1,267.1,274.8,257.8,274.8z"/>
<path class="st1" d="M268.4,183.6c0-1-0.2-1.4-1.4-1.4c-14.4,0-29,0-43.5,0c-1,0-1.4-0.2-1.4-1.4c0-14.4,0-29,0-43.5
	c0-1.2-0.3-1.4-1.4-1.4c-6.2,0-12.5,0-18.7,0c-6.2,0-12.5,0-18.7,0c-1,0-1.4,0.2-1.4,1.4c0,14.4,0,29,0,43.5c0,1-0.2,1.4-1.4,1.4
	c-14.4,0-29,0-43.5,0c-1.2,0-1.4,0.3-1.4,1.4c0,6.2,0,12.5,0,18.7c0,6.2,0,12.5,0,18.7c0,1,0.2,1.4,1.4,1.4c14.4,0,29,0,43.5,0
	c1,0,1.4,0.2,1.4,1.4c0,14.4,0,29,0,43.5c0,1.2,0.3,1.4,1.4,1.4c6.2,0,12.5,0,18.7,0c6.2,0,12.5,0,18.7,0c1,0,1.4-0.2,1.4-1.4
	c0-14.4,0-29,0-43.5c0-1,0.2-1.4,1.4-1.4c14.4,0,29,0,43.5,0c1.2,0,1.4-0.3,1.4-1.4c0-6.2,0-12.5,0-18.7
	C268.4,196.1,268.4,189.8,268.4,183.6z"/>
<path class="st2" d="M268.4,107.9c0-13.1,0-26.1,0-39.3c0-2.9,0-5.9,0-8.8c0-0.6-0.1-1-0.7-1.5c-1.3-1-2.4-2.2-3.6-3.2
	c-4.6-4.2-9.1-8.4-13.8-12.6c-6.6-6-13.2-12-19.8-17.9c-4.7-4.3-9.5-8.6-14.1-12.8c-2.1-1.8-4.3-3.6-6.1-5.8c-63.9,0-128,0-191.9,0
	c-1,0.1-1.5,0.2-2.2,0.6c-3,1.2-5.3,3.1-7.2,5.8c-1.5,2.2-2.5,4.5-2.8,7.1c0,78.4,0,156.9,0,235.2c0.2,0.5,0,0.9,0.2,1.4
	c0.1,0.3,0.1,0.6,0.2,0.9c0.6,2.7,1.5,5.1,3.4,7.1c3.1,3.6,7.4,5,12,5c22.4,0,45,0,67.4,0l0,0c1,0,2.1,0,3.1,0c0.1,0,0.2,0,0.3,0
	l0,0c22.9,0,45.8,0,68.7,0c0.3,0,0.6,0,0.9,0c0.6,0,0.7-0.2,0.7-0.8c0-8.3,0-16.8,0-25.1c0-1.6,0-1.6-1.7-1.6c-22.8,0-45.5,0-68.4,0
	l0,0c-19.2,0-38.4,0-57.7,0c-1.7,0-1.5,0.1-1.5-1.5c0-68.2,0-136.4,0-204.6c0-1.7-0.2-1.6,1.6-1.6c30.5,0,61.1,0,91.7,0
	c24.3,0,48.5,0,72.8,0c0.8,0,1.4,0.1,2,0.7c1.8,1.7,3.8,3.5,5.7,5.2c6.9,6.2,13.8,12.6,20.7,18.8c4,3.7,8,7.4,12,11.1
	c0.8,0.7,1,1.4,1,2.3c0,12,0,24,0,36.1l0,0c0,18,0,35.9,0,54c0,1.5,0,1.5,1.5,1.5c8,0,16,0,23.9,0c1.5,0,1.5,0,1.5-1.6
	C268.4,143.8,268.4,125.9,268.4,107.9L268.4,107.9z"/>
</svg>
